# xmcd
#
# Track frame offsets:
#	150
#	14259
#	28368
#
# Disc length: 563 seconds
#
# Revision: 0
# Processed by: cddbd v1.5.1PL2 Copyright (c) Steve Scherf et al.
# Submitted via: dBpowerAMP V4.0
#
DISCID=1e023103
DTITLE=Mark Collie - CD Single
DYEAR=1900
DGENRE=Country
TTITLE0=Rapid Roy (The Stock Car Boy)
TTITLE1=Rapid Roy (The Stock Car Boy)
TTITLE2=Rapid Roy (THe Stock Car Boy)
EXTD=
EXTT0=
EXTT1=
EXTT2=
PLAYORDER=
